<svg width="300" height="300" viewBox="0 0 192 192" fill="none" xmlns="http://www.w3.org/2000/svg">
<rect width="300" height="300" rx="16.6957" fill="#FFFFFA"/>
<path d="M112.865 104.296L102.241 97.7609C102.058 97.6433 101.851 97.5696 101.635 97.5457L97.1544 96.9391C96.8201 96.8911 96.4793 96.9554 96.1855 97.1218C95.8916 97.2882 95.6612 97.5474 95.5304 97.8587L92.85 103.865C92.724 104.145 92.6828 104.455 92.7315 104.757C92.7802 105.06 92.9166 105.342 93.1239 105.567L96.8022 109.539C96.9685 109.722 97.0903 109.941 97.1582 110.178C97.226 110.416 97.2381 110.666 97.1935 110.909L96.4305 114.783M83.6739 81.8348L81.9131 85.9826C81.7597 86.3509 81.7527 86.7638 81.8935 87.137L84.1435 93.1239C84.2314 93.3735 84.3819 93.5963 84.5806 93.771C84.7793 93.9457 85.0195 94.0665 85.2783 94.1218L89.4652 95.0218C89.6976 95.0688 89.9159 95.1693 90.1027 95.3153C90.2894 95.4613 90.4396 95.6489 90.5413 95.8631L91.2848 97.4087C91.4169 97.67 91.618 97.8903 91.8663 98.0454C92.1146 98.2006 92.4007 98.2849 92.6935 98.2891H95.3348M100.793 77.8239L102.613 81.1109C102.781 81.4199 102.841 81.776 102.785 82.1232C102.728 82.4703 102.558 82.7887 102.3 83.0283L97.037 87.7826C96.9489 87.8668 96.8502 87.9391 96.7435 87.9978L94.337 89.3283C94.1076 89.45 93.8531 89.517 93.5935 89.5239H89.4065C89.0981 89.5255 88.7968 89.617 88.5396 89.7873C88.2825 89.9576 88.0806 90.1993 87.9587 90.4826L86.3348 94.337M114.783 96C114.783 106.373 106.373 114.783 96 114.783C85.6267 114.783 77.2174 106.373 77.2174 96C77.2174 85.6267 85.6267 77.2174 96 77.2174C106.373 77.2174 114.783 85.6267 114.783 96Z" stroke="url(#paint0_linear_2502_7036)" stroke-width="3.13043" stroke-linecap="round" stroke-linejoin="round"/>
<path d="M177.391 96L96.2278 14.8364L73.2315 37.8328L154.395 118.996L177.391 96Z" fill="#14CC9E"/>
<path d="M119.224 154.167L38.0606 73.0037L15.0642 96L96.2278 177.164L119.224 154.167Z" fill="#41648A"/>
<path d="M119.224 154.167L146.279 127.113L123.282 104.116L96.2278 131.171L119.224 154.167Z" fill="url(#paint1_linear_2502_7036)"/>
<path d="M69.1733 87.8836L96.2278 60.8291L73.2315 37.8328L46.1769 64.8873L69.1733 87.8836Z" fill="url(#paint2_linear_2502_7036)"/>
<defs>
<linearGradient id="paint0_linear_2502_7036" x1="96" y1="77.2174" x2="96" y2="114.783" gradientUnits="userSpaceOnUse">
<stop stop-color="#41648A"/>
<stop offset="1" stop-color="#14CC9E"/>
</linearGradient>
<linearGradient id="paint1_linear_2502_7036" x1="136.81" y1="55.4182" x2="55.646" y2="136.582" gradientUnits="userSpaceOnUse">
<stop stop-color="#0099FF"/>
<stop offset="0.734375" stop-color="#1D3855" stop-opacity="0.82"/>
<stop offset="1" stop-color="#101822"/>
</linearGradient>
<linearGradient id="paint2_linear_2502_7036" x1="136.81" y1="55.4182" x2="55.646" y2="136.582" gradientUnits="userSpaceOnUse">
<stop stop-color="#2B3A36"/>
<stop offset="0.0833333" stop-color="#173A32" stop-opacity="0.961121"/>
<stop offset="0.557292" stop-color="#14CC9E" stop-opacity="0.74"/>
<stop offset="0.9375" stop-color="#14CC9E"/>
</linearGradient>
</defs>
</svg>
